<svg xmlns="http://www.w3.org/2000/svg" width="69.622" height="69.622" viewBox="0 0 69.622 69.622"><g transform="translate(0.5 0.5)"><path d="M34.311,68.622A34.311,34.311,0,1,1,68.622,34.311,34.357,34.357,0,0,1,34.311,68.622ZM63.247,39.006a42.982,42.982,0,0,0-18.254-1.252,126.745,126.745,0,0,1,5.7,20.9A29.4,29.4,0,0,0,63.256,39.006ZM45.763,61.331A121.925,121.925,0,0,0,39.5,39.115l-.189.057C22.757,44.933,16.838,56.4,16.324,57.471a29.23,29.23,0,0,0,29.422,3.866ZM12.538,53.954C13.2,52.811,21.244,39.5,36.361,34.611c.386-.129.772-.24,1.158-.343-.743-1.673-1.544-3.337-2.379-4.975a108.023,108.023,0,0,1-30.12,4.16l-.011.892a29.217,29.217,0,0,0,7.531,19.6ZM5.618,28.35a108.825,108.825,0,0,0,27.1-3.568A187.206,187.206,0,0,0,21.851,7.832a29.379,29.379,0,0,0-16.229,20.5ZM27.449,5.867A156.38,156.38,0,0,1,38.377,23.023c10.422-3.9,14.84-9.836,15.363-10.585A29.241,29.241,0,0,0,27.449,5.859ZM57,15.826c-.623.829-5.533,7.128-16.366,11.551.686,1.4,1.344,2.816,1.944,4.249.229.515.629,1.515.629,1.515s19.443.743,20.415.944a29,29,0,0,0-6.6-18.242Z" fill="#8a6337" stroke="#8a6337" stroke-width="1"/></g></svg>