<svg xmlns="http://www.w3.org/2000/svg" width="69.595" height="43.883" viewBox="0 0 69.595 43.883"><g transform="translate(0.5 0.5)"><path d="M19.838,6.754a25.5,25.5,0,0,1,5.49.538,12.348,12.348,0,0,1,4.246,1.744,8.037,8.037,0,0,1,2.745,3.2,11.426,11.426,0,0,1,.972,4.947,9.3,9.3,0,0,1-1.45,5.318,10.474,10.474,0,0,1-4.295,3.488,10.076,10.076,0,0,1,5.781,3.917,11.735,11.735,0,0,1,1.9,6.748,11.82,11.82,0,0,1-1.172,5.518,10.581,10.581,0,0,1-3.317,3.86,14.553,14.553,0,0,1-4.775,2.193,20.917,20.917,0,0,1-5.461.726H0V6.775H19.838Zm28.6,34.774a7.461,7.461,0,0,0,5.415,1.839,7.467,7.467,0,0,0,4.375-1.278,5.263,5.263,0,0,0,2.23-2.688h7.4c-1.152,3.66-3,6.29-5.433,7.863a15.685,15.685,0,0,1-8.807,2.373,17.525,17.525,0,0,1-6.5-1.144,14.147,14.147,0,0,1-4.918-3.26,14.584,14.584,0,0,1-3.079-5.061,18.761,18.761,0,0,1-1.067-6.491,17.389,17.389,0,0,1,1.152-6.376,14.841,14.841,0,0,1,8.166-8.532,15.321,15.321,0,0,1,6.348-1.238,14.413,14.413,0,0,1,6.805,1.5,13.725,13.725,0,0,1,4.746,4,15.923,15.923,0,0,1,2.688,5.776,23.071,23.071,0,0,1,.6,6.805H46.575a8.665,8.665,0,0,0,2.03,5.9l-.229.086Zm-29.279.143a12.039,12.039,0,0,0,2.59-.266,6.63,6.63,0,0,0,2.182-.858,4.237,4.237,0,0,0,1.487-1.667,5.861,5.861,0,0,0,.543-2.745,5.549,5.549,0,0,0-1.83-4.632A7.874,7.874,0,0,0,19.3,30.132H9.264v11.58h9.893v-.086ZM58.063,25.517a6.294,6.294,0,0,0-4.738-1.693,7.09,7.09,0,0,0-3.334.681,6.161,6.161,0,0,0-2.116,1.687,5.952,5.952,0,0,0-1.121,2.144,10.023,10.023,0,0,0-.386,2.03H59.985a8.168,8.168,0,0,0-1.944-4.832v.029ZM18.642,23.759a6.658,6.658,0,0,0,4.074-1.178A4.4,4.4,0,0,0,24.3,18.755a5.388,5.388,0,0,0-.515-2.419,4.179,4.179,0,0,0-1.43-1.464,6.054,6.054,0,0,0-2.059-.735,12.655,12.655,0,0,0-2.4-.212H9.235v9.836h9.407ZM44.656,9.582H61.72V13.74H44.656V9.577Z" transform="translate(0 -6.755)" fill="#8a6337" stroke="#8a6337" stroke-width="1"/></g></svg>